<?xml version="1.0" encoding="UTF-8" standalone="no"?>
<!DOCTYPE svg PUBLIC "-//W3C//DTD SVG 1.1//EN"
 "http://www.w3.org/Graphics/SVG/1.1/DTD/svg11.dtd">
<!-- Generated by graphviz version 5.0.0 (0)
 -->
<!-- Pages: 1 -->
<svg width="1439pt" height="491pt"
 viewBox="0.00 0.00 1439.00 491.00" xmlns="http://www.w3.org/2000/svg" xmlns:xlink="http://www.w3.org/1999/xlink">
<g id="graph0" class="graph" transform="scale(1 1) rotate(0) translate(4 487)">
<polygon fill="white" stroke="transparent" points="-4,4 -4,-487 1435,-487 1435,4 -4,4"/>
<g id="clust1" class="cluster">
<title>cluster_resource</title>
<polygon fill="#ffeeee" stroke="#ffeeee" points="8,-8 8,-475 438,-475 438,-8 8,-8"/>
<text text-anchor="middle" x="223" y="-459.8" font-family="Times,serif" font-size="14.00">Resouce model</text>
</g>
<g id="clust5" class="cluster">
<title>cluster_process</title>
<polygon fill="#eeffee" stroke="#eeffee" points="446,-8 446,-475 892,-475 892,-8 446,-8"/>
<text text-anchor="middle" x="669" y="-459.8" font-family="Times,serif" font-size="14.00">Process model</text>
</g>
<g id="clust11" class="cluster">
<title>cluster_task</title>
<polygon fill="#eeeeff" stroke="#eeeeff" points="900,-8 900,-475 1423,-475 1423,-8 900,-8"/>
<text text-anchor="middle" x="1161.5" y="-459.8" font-family="Times,serif" font-size="14.00">Task model</text>
</g>
<!-- cluster -->
<g id="node1" class="node">
<title>cluster</title>
<ellipse fill="none" stroke="black" cx="223" cy="-403" rx="42.79" ry="18"/>
<text text-anchor="middle" x="223" y="-399.3" font-family="Times,serif" font-size="14.00">cluster</text>
</g>
<!-- node 0 -->
<g id="node2" class="node">
<title>node 0</title>
<ellipse fill="none" stroke="black" cx="169" cy="-280" rx="42.49" ry="18"/>
<text text-anchor="middle" x="169" y="-276.3" font-family="Times,serif" font-size="14.00">node 0</text>
</g>
<!-- cluster&#45;&gt;node 0 -->
<g id="edge1" class="edge">
<title>cluster&#45;&gt;node 0</title>
<path fill="none" stroke="black" d="M215.49,-385.18C206.51,-365.06 191.38,-331.16 180.83,-307.51"/>
<polygon fill="black" stroke="black" points="183.89,-305.78 176.62,-298.07 177.5,-308.63 183.89,-305.78"/>
</g>
<!-- node 1 -->
<g id="node3" class="node">
<title>node 1</title>
<ellipse fill="none" stroke="black" cx="277" cy="-280" rx="42.49" ry="18"/>
<text text-anchor="middle" x="277" y="-276.3" font-family="Times,serif" font-size="14.00">node 1</text>
</g>
<!-- cluster&#45;&gt;node 1 -->
<g id="edge2" class="edge">
<title>cluster&#45;&gt;node 1</title>
<path fill="none" stroke="black" d="M230.51,-385.18C239.49,-365.06 254.62,-331.16 265.17,-307.51"/>
<polygon fill="black" stroke="black" points="268.5,-308.63 269.38,-298.07 262.11,-305.78 268.5,-308.63"/>
</g>
<!-- cpu 0.0 -->
<g id="node4" class="node">
<title>cpu 0.0</title>
<ellipse fill="none" stroke="black" cx="61" cy="-34" rx="44.69" ry="18"/>
<text text-anchor="middle" x="61" y="-30.3" font-family="Times,serif" font-size="14.00">cpu 0.0</text>
</g>
<!-- node 0&#45;&gt;cpu 0.0 -->
<g id="edge3" class="edge">
<title>node 0&#45;&gt;cpu 0.0</title>
<path fill="none" stroke="black" d="M161.58,-262.23C143.08,-220.44 94.83,-111.43 72.57,-61.13"/>
<polygon fill="black" stroke="black" points="75.72,-59.62 68.48,-51.89 69.32,-62.45 75.72,-59.62"/>
</g>
<!-- cpu 0.1 -->
<g id="node5" class="node">
<title>cpu 0.1</title>
<ellipse fill="none" stroke="black" cx="169" cy="-34" rx="44.69" ry="18"/>
<text text-anchor="middle" x="169" y="-30.3" font-family="Times,serif" font-size="14.00">cpu 0.1</text>
</g>
<!-- node 0&#45;&gt;cpu 0.1 -->
<g id="edge4" class="edge">
<title>node 0&#45;&gt;cpu 0.1</title>
<path fill="none" stroke="black" d="M169,-261.84C169,-220.1 169,-112.99 169,-62.33"/>
<polygon fill="black" stroke="black" points="172.5,-62.14 169,-52.14 165.5,-62.14 172.5,-62.14"/>
</g>
<!-- cpu 1.0 -->
<g id="node6" class="node">
<title>cpu 1.0</title>
<ellipse fill="none" stroke="black" cx="277" cy="-34" rx="44.69" ry="18"/>
<text text-anchor="middle" x="277" y="-30.3" font-family="Times,serif" font-size="14.00">cpu 1.0</text>
</g>
<!-- node 1&#45;&gt;cpu 1.0 -->
<g id="edge5" class="edge">
<title>node 1&#45;&gt;cpu 1.0</title>
<path fill="none" stroke="black" d="M277,-261.84C277,-220.1 277,-112.99 277,-62.33"/>
<polygon fill="black" stroke="black" points="280.5,-62.14 277,-52.14 273.5,-62.14 280.5,-62.14"/>
</g>
<!-- cpu 1.1 -->
<g id="node7" class="node">
<title>cpu 1.1</title>
<ellipse fill="none" stroke="black" cx="385" cy="-34" rx="44.69" ry="18"/>
<text text-anchor="middle" x="385" y="-30.3" font-family="Times,serif" font-size="14.00">cpu 1.1</text>
</g>
<!-- node 1&#45;&gt;cpu 1.1 -->
<g id="edge6" class="edge">
<title>node 1&#45;&gt;cpu 1.1</title>
<path fill="none" stroke="black" d="M284.15,-262.06C298.32,-228.63 331.06,-151.89 360,-88 363.97,-79.25 368.41,-69.74 372.44,-61.22"/>
<polygon fill="black" stroke="black" points="375.63,-62.66 376.76,-52.12 369.31,-59.65 375.63,-62.66"/>
</g>
<!-- genesis -->
<g id="node8" class="node">
<title>genesis</title>
<ellipse fill="none" stroke="black" cx="685" cy="-403" rx="46.29" ry="18"/>
<text text-anchor="middle" x="685" y="-399.3" font-family="Times,serif" font-size="14.00">genesis</text>
</g>
<!-- loom 0 -->
<g id="node9" class="node">
<title>loom 0</title>
<ellipse fill="none" stroke="black" cx="633" cy="-280" rx="42.49" ry="18"/>
<text text-anchor="middle" x="633" y="-276.3" font-family="Times,serif" font-size="14.00">loom 0</text>
</g>
<!-- genesis&#45;&gt;loom 0 -->
<g id="edge7" class="edge">
<title>genesis&#45;&gt;loom 0</title>
<path fill="none" stroke="black" d="M677.77,-385.18C669.13,-365.06 654.55,-331.16 644.39,-307.51"/>
<polygon fill="black" stroke="black" points="647.5,-305.88 640.34,-298.07 641.07,-308.64 647.5,-305.88"/>
</g>
<!-- loom 1 -->
<g id="node10" class="node">
<title>loom 1</title>
<ellipse fill="none" stroke="black" cx="737" cy="-280" rx="42.49" ry="18"/>
<text text-anchor="middle" x="737" y="-276.3" font-family="Times,serif" font-size="14.00">loom 1</text>
</g>
<!-- genesis&#45;&gt;loom 1 -->
<g id="edge8" class="edge">
<title>genesis&#45;&gt;loom 1</title>
<path fill="none" stroke="black" d="M692.23,-385.18C700.87,-365.06 715.45,-331.16 725.61,-307.51"/>
<polygon fill="black" stroke="black" points="728.93,-308.64 729.66,-298.07 722.5,-305.88 728.93,-308.64"/>
</g>
<!-- loom 0&#45;&gt;node 0 -->
<g id="edge27" class="edge">
<title>loom 0&#45;&gt;node 0</title>
<path fill="none" stroke="blue" stroke-dasharray="5,2" d="M602.07,-292.52C564.32,-307.07 498.2,-330.2 439,-339 355.62,-351.4 259.53,-319 207.44,-297.44"/>
<polygon fill="blue" stroke="blue" points="208.5,-294.09 197.93,-293.42 205.78,-300.54 208.5,-294.09"/>
<text text-anchor="middle" x="401" y="-337.8" font-family="Times,serif" font-size="14.00">mapped to</text>
</g>
<!-- pid 0.0 -->
<g id="node11" class="node">
<title>pid 0.0</title>
<ellipse fill="none" stroke="black" cx="529" cy="-157" rx="42.79" ry="18"/>
<text text-anchor="middle" x="529" y="-153.3" font-family="Times,serif" font-size="14.00">pid 0.0</text>
</g>
<!-- loom 0&#45;&gt;pid 0.0 -->
<g id="edge9" class="edge">
<title>loom 0&#45;&gt;pid 0.0</title>
<path fill="none" stroke="black" d="M618.97,-262.68C601.04,-241.82 569.86,-205.54 549.33,-181.65"/>
<polygon fill="black" stroke="black" points="551.98,-179.36 542.8,-174.06 546.67,-183.93 551.98,-179.36"/>
</g>
<!-- pid 0.1 -->
<g id="node12" class="node">
<title>pid 0.1</title>
<ellipse fill="none" stroke="black" cx="633" cy="-157" rx="42.79" ry="18"/>
<text text-anchor="middle" x="633" y="-153.3" font-family="Times,serif" font-size="14.00">pid 0.1</text>
</g>
<!-- loom 0&#45;&gt;pid 0.1 -->
<g id="edge10" class="edge">
<title>loom 0&#45;&gt;pid 0.1</title>
<path fill="none" stroke="black" d="M633,-261.92C633,-242.04 633,-208.92 633,-185.42"/>
<polygon fill="black" stroke="black" points="636.5,-185.38 633,-175.38 629.5,-185.38 636.5,-185.38"/>
</g>
<!-- pid 1.0 -->
<g id="node13" class="node">
<title>pid 1.0</title>
<ellipse fill="none" stroke="black" cx="737" cy="-157" rx="42.79" ry="18"/>
<text text-anchor="middle" x="737" y="-153.3" font-family="Times,serif" font-size="14.00">pid 1.0</text>
</g>
<!-- loom 1&#45;&gt;pid 1.0 -->
<g id="edge11" class="edge">
<title>loom 1&#45;&gt;pid 1.0</title>
<path fill="none" stroke="black" d="M737,-261.92C737,-242.04 737,-208.92 737,-185.42"/>
<polygon fill="black" stroke="black" points="740.5,-185.38 737,-175.38 733.5,-185.38 740.5,-185.38"/>
</g>
<!-- pid 1.1 -->
<g id="node14" class="node">
<title>pid 1.1</title>
<ellipse fill="none" stroke="black" cx="841" cy="-157" rx="42.79" ry="18"/>
<text text-anchor="middle" x="841" y="-153.3" font-family="Times,serif" font-size="14.00">pid 1.1</text>
</g>
<!-- loom 1&#45;&gt;pid 1.1 -->
<g id="edge12" class="edge">
<title>loom 1&#45;&gt;pid 1.1</title>
<path fill="none" stroke="black" d="M751.03,-262.68C768.96,-241.82 800.14,-205.54 820.67,-181.65"/>
<polygon fill="black" stroke="black" points="823.33,-183.93 827.2,-174.06 818.02,-179.36 823.33,-183.93"/>
</g>
<!-- th 0.0.0 -->
<g id="node15" class="node">
<title>th 0.0.0</title>
<ellipse fill="none" stroke="black" cx="501" cy="-34" rx="46.59" ry="18"/>
<text text-anchor="middle" x="501" y="-30.3" font-family="Times,serif" font-size="14.00">th 0.0.0</text>
</g>
<!-- pid 0.0&#45;&gt;th 0.0.0 -->
<g id="edge13" class="edge">
<title>pid 0.0&#45;&gt;th 0.0.0</title>
<path fill="none" stroke="black" d="M525.05,-138.92C520.42,-118.92 512.7,-85.55 507.25,-62.02"/>
<polygon fill="black" stroke="black" points="510.6,-60.95 504.93,-51.99 503.78,-62.52 510.6,-60.95"/>
</g>
<!-- th 0.0.1 -->
<g id="node16" class="node">
<title>th 0.0.1</title>
<ellipse fill="none" stroke="black" cx="613" cy="-34" rx="46.59" ry="18"/>
<text text-anchor="middle" x="613" y="-30.3" font-family="Times,serif" font-size="14.00">th 0.0.1</text>
</g>
<!-- pid 0.0&#45;&gt;th 0.0.1 -->
<g id="edge14" class="edge">
<title>pid 0.0&#45;&gt;th 0.0.1</title>
<path fill="none" stroke="black" d="M540.68,-139.18C554.91,-118.68 579.08,-83.85 595.53,-60.16"/>
<polygon fill="black" stroke="black" points="598.59,-61.89 601.42,-51.68 592.84,-57.9 598.59,-61.89"/>
</g>
<!-- th 0.1.0 -->
<g id="node17" class="node">
<title>th 0.1.0</title>
<ellipse fill="none" stroke="black" cx="725" cy="-34" rx="46.59" ry="18"/>
<text text-anchor="middle" x="725" y="-30.3" font-family="Times,serif" font-size="14.00">th 0.1.0</text>
</g>
<!-- pid 0.1&#45;&gt;th 0.1.0 -->
<g id="edge15" class="edge">
<title>pid 0.1&#45;&gt;th 0.1.0</title>
<path fill="none" stroke="black" d="M645.41,-139.68C661.05,-119.11 688.07,-83.57 706.24,-59.67"/>
<polygon fill="black" stroke="black" points="709.23,-61.53 712.5,-51.45 703.66,-57.29 709.23,-61.53"/>
</g>
<!-- th 0.1.1 -->
<g id="node18" class="node">
<title>th 0.1.1</title>
<ellipse fill="none" stroke="black" cx="837" cy="-34" rx="46.59" ry="18"/>
<text text-anchor="middle" x="837" y="-30.3" font-family="Times,serif" font-size="14.00">th 0.1.1</text>
</g>
<!-- pid 0.1&#45;&gt;th 0.1.1 -->
<g id="edge16" class="edge">
<title>pid 0.1&#45;&gt;th 0.1.1</title>
<path fill="none" stroke="black" d="M656.8,-141.88C693.15,-120.32 762.61,-79.12 803.87,-54.65"/>
<polygon fill="black" stroke="black" points="805.9,-57.51 812.72,-49.4 802.33,-51.49 805.9,-57.51"/>
</g>
<!-- th 0.0.0&#45;&gt;cpu 0.0 -->
<g id="edge30" class="edge">
<title>th 0.0.0&#45;&gt;cpu 0.0</title>
<path fill="none" stroke="red" stroke-dasharray="5,2" d="M484.26,-50.97C468.31,-65.83 442.8,-86.38 416,-95 351.68,-115.69 180.53,-68.48 115,-52 111.44,-51.1 107.77,-50.09 104.1,-49.01"/>
<polygon fill="red" stroke="red" points="105.06,-45.64 94.47,-46.03 102.99,-52.33 105.06,-45.64"/>
<text text-anchor="middle" x="390" y="-91.8" font-family="Times,serif" font-size="14.00">runs at</text>
</g>
<!-- workload -->
<g id="node19" class="node">
<title>workload</title>
<ellipse fill="none" stroke="black" cx="1190" cy="-403" rx="53.09" ry="18"/>
<text text-anchor="middle" x="1190" y="-399.3" font-family="Times,serif" font-size="14.00">workload</text>
</g>
<!-- app 0 -->
<g id="node20" class="node">
<title>app 0</title>
<ellipse fill="none" stroke="black" cx="1132" cy="-280" rx="36.29" ry="18"/>
<text text-anchor="middle" x="1132" y="-276.3" font-family="Times,serif" font-size="14.00">app 0</text>
</g>
<!-- workload&#45;&gt;app 0 -->
<g id="edge17" class="edge">
<title>workload&#45;&gt;app 0</title>
<path fill="none" stroke="black" d="M1181.94,-385.18C1172.2,-364.86 1155.71,-330.47 1144.36,-306.79"/>
<polygon fill="black" stroke="black" points="1147.47,-305.19 1140,-297.68 1141.16,-308.21 1147.47,-305.19"/>
</g>
<!-- app 1 -->
<g id="node21" class="node">
<title>app 1</title>
<ellipse fill="none" stroke="black" cx="1249" cy="-280" rx="36.29" ry="18"/>
<text text-anchor="middle" x="1249" y="-276.3" font-family="Times,serif" font-size="14.00">app 1</text>
</g>
<!-- workload&#45;&gt;app 1 -->
<g id="edge18" class="edge">
<title>workload&#45;&gt;app 1</title>
<path fill="none" stroke="black" d="M1198.2,-385.18C1208.11,-364.86 1224.88,-330.47 1236.42,-306.79"/>
<polygon fill="black" stroke="black" points="1239.63,-308.2 1240.87,-297.68 1233.34,-305.14 1239.63,-308.2"/>
</g>
<!-- rank 0.0 -->
<g id="node22" class="node">
<title>rank 0.0</title>
<ellipse fill="none" stroke="black" cx="1015" cy="-157" rx="49.29" ry="18"/>
<text text-anchor="middle" x="1015" y="-153.3" font-family="Times,serif" font-size="14.00">rank 0.0</text>
</g>
<!-- app 0&#45;&gt;rank 0.0 -->
<g id="edge19" class="edge">
<title>app 0&#45;&gt;rank 0.0</title>
<path fill="none" stroke="black" d="M1116.7,-263.18C1096.58,-242.37 1061.05,-205.63 1037.77,-181.55"/>
<polygon fill="black" stroke="black" points="1040.14,-178.96 1030.67,-174.21 1035.11,-183.83 1040.14,-178.96"/>
</g>
<!-- rank 0.1 -->
<g id="node23" class="node">
<title>rank 0.1</title>
<ellipse fill="none" stroke="black" cx="1132" cy="-157" rx="49.29" ry="18"/>
<text text-anchor="middle" x="1132" y="-153.3" font-family="Times,serif" font-size="14.00">rank 0.1</text>
</g>
<!-- app 0&#45;&gt;rank 0.1 -->
<g id="edge20" class="edge">
<title>app 0&#45;&gt;rank 0.1</title>
<path fill="none" stroke="black" d="M1132,-261.92C1132,-242.04 1132,-208.92 1132,-185.42"/>
<polygon fill="black" stroke="black" points="1135.5,-185.38 1132,-175.38 1128.5,-185.38 1135.5,-185.38"/>
</g>
<!-- rank 1.0 -->
<g id="node24" class="node">
<title>rank 1.0</title>
<ellipse fill="none" stroke="black" cx="1249" cy="-157" rx="49.29" ry="18"/>
<text text-anchor="middle" x="1249" y="-153.3" font-family="Times,serif" font-size="14.00">rank 1.0</text>
</g>
<!-- app 1&#45;&gt;rank 1.0 -->
<g id="edge21" class="edge">
<title>app 1&#45;&gt;rank 1.0</title>
<path fill="none" stroke="black" d="M1249,-261.92C1249,-242.04 1249,-208.92 1249,-185.42"/>
<polygon fill="black" stroke="black" points="1252.5,-185.38 1249,-175.38 1245.5,-185.38 1252.5,-185.38"/>
</g>
<!-- rank 1.1 -->
<g id="node25" class="node">
<title>rank 1.1</title>
<ellipse fill="none" stroke="black" cx="1366" cy="-157" rx="49.29" ry="18"/>
<text text-anchor="middle" x="1366" y="-153.3" font-family="Times,serif" font-size="14.00">rank 1.1</text>
</g>
<!-- app 1&#45;&gt;rank 1.1 -->
<g id="edge22" class="edge">
<title>app 1&#45;&gt;rank 1.1</title>
<path fill="none" stroke="black" d="M1264.3,-263.18C1284.42,-242.37 1319.95,-205.63 1343.23,-181.55"/>
<polygon fill="black" stroke="black" points="1345.89,-183.83 1350.33,-174.21 1340.86,-178.96 1345.89,-183.83"/>
</g>
<!-- rank 0.0&#45;&gt;pid 0.0 -->
<g id="edge28" class="edge">
<title>rank 0.0&#45;&gt;pid 0.0</title>
<path fill="none" stroke="blue" stroke-dasharray="5,2" d="M982.2,-170.78C917.51,-196.09 769.17,-244.84 647,-216 615.71,-208.61 583.26,-191.59 560.32,-177.72"/>
<polygon fill="blue" stroke="blue" points="562.06,-174.68 551.72,-172.39 558.38,-180.63 562.06,-174.68"/>
<text text-anchor="middle" x="685" y="-214.8" font-family="Times,serif" font-size="14.00">mapped to</text>
</g>
<!-- task 0.0.0 -->
<g id="node26" class="node">
<title>task 0.0.0</title>
<ellipse fill="none" stroke="black" cx="965" cy="-34" rx="56.59" ry="18"/>
<text text-anchor="middle" x="965" y="-30.3" font-family="Times,serif" font-size="14.00">task 0.0.0</text>
</g>
<!-- rank 0.0&#45;&gt;task 0.0.0 -->
<g id="edge23" class="edge">
<title>rank 0.0&#45;&gt;task 0.0.0</title>
<path fill="none" stroke="black" d="M1008.05,-139.18C999.74,-119.06 985.73,-85.16 975.95,-61.51"/>
<polygon fill="black" stroke="black" points="979.11,-59.98 972.05,-52.07 972.64,-62.65 979.11,-59.98"/>
</g>
<!-- task 0.0.1 -->
<g id="node27" class="node">
<title>task 0.0.1</title>
<ellipse fill="none" stroke="black" cx="1096" cy="-34" rx="56.59" ry="18"/>
<text text-anchor="middle" x="1096" y="-30.3" font-family="Times,serif" font-size="14.00">task 0.0.1</text>
</g>
<!-- rank 0.0&#45;&gt;task 0.0.1 -->
<g id="edge24" class="edge">
<title>rank 0.0&#45;&gt;task 0.0.1</title>
<path fill="none" stroke="black" d="M1026.26,-139.18C1039.98,-118.68 1063.3,-83.85 1079.16,-60.16"/>
<polygon fill="black" stroke="black" points="1082.18,-61.94 1084.83,-51.68 1076.36,-58.04 1082.18,-61.94"/>
</g>
<!-- task 0.1.0 -->
<g id="node28" class="node">
<title>task 0.1.0</title>
<ellipse fill="none" stroke="black" cx="1227" cy="-34" rx="56.59" ry="18"/>
<text text-anchor="middle" x="1227" y="-30.3" font-family="Times,serif" font-size="14.00">task 0.1.0</text>
</g>
<!-- rank 0.1&#45;&gt;task 0.1.0 -->
<g id="edge25" class="edge">
<title>rank 0.1&#45;&gt;task 0.1.0</title>
<path fill="none" stroke="black" d="M1145.21,-139.18C1161.37,-118.59 1188.88,-83.55 1207.49,-59.85"/>
<polygon fill="black" stroke="black" points="1210.48,-61.71 1213.9,-51.68 1204.97,-57.39 1210.48,-61.71"/>
</g>
<!-- task 0.1.1 -->
<g id="node29" class="node">
<title>task 0.1.1</title>
<ellipse fill="none" stroke="black" cx="1358" cy="-34" rx="56.59" ry="18"/>
<text text-anchor="middle" x="1358" y="-30.3" font-family="Times,serif" font-size="14.00">task 0.1.1</text>
</g>
<!-- rank 0.1&#45;&gt;task 0.1.1 -->
<g id="edge26" class="edge">
<title>rank 0.1&#45;&gt;task 0.1.1</title>
<path fill="none" stroke="black" d="M1158.81,-141.64C1199.18,-120.03 1275.66,-79.08 1321.21,-54.7"/>
<polygon fill="black" stroke="black" points="1323,-57.71 1330.16,-49.9 1319.69,-51.54 1323,-57.71"/>
</g>
<!-- task 0.0.0&#45;&gt;th 0.0.0 -->
<g id="edge29" class="edge">
<title>task 0.0.0&#45;&gt;th 0.0.0</title>
<path fill="none" stroke="red" stroke-dasharray="5,2" d="M922.11,-45.88C837.96,-68.38 654.09,-113.41 593,-95 568.4,-87.59 544.34,-71.21 526.99,-57.29"/>
<polygon fill="red" stroke="red" points="528.98,-54.39 519.04,-50.7 524.51,-59.78 528.98,-54.39"/>
<text text-anchor="middle" x="619" y="-91.8" font-family="Times,serif" font-size="14.00">runs at</text>
</g>
</g>
</svg>
