<?xml version="1.0" encoding="UTF-8" standalone="no"?>
<!DOCTYPE svg PUBLIC "-//W3C//DTD SVG 1.1//EN"
 "http://www.w3.org/Graphics/SVG/1.1/DTD/svg11.dtd">
<!-- Generated by graphviz version 5.0.0 (0)
 -->
<!-- Pages: 1 -->
<svg width="596pt" height="413pt"
 viewBox="0.00 0.00 596.34 413.00" xmlns="http://www.w3.org/2000/svg" xmlns:xlink="http://www.w3.org/1999/xlink">
<g id="graph0" class="graph" transform="scale(1 1) rotate(0) translate(4 409)">
<polygon fill="white" stroke="transparent" points="-4,4 -4,-409 592.34,-409 592.34,4 -4,4"/>
<!-- unknown -->
<g id="node1" class="node">
<title>unknown</title>
<ellipse fill="none" stroke="black" cx="87.2" cy="-387" rx="52.79" ry="18"/>
<text text-anchor="middle" x="87.2" y="-383.3" font-family="Times,serif" font-size="14.00">unknown</text>
</g>
<!-- running -->
<g id="node2" class="node">
<title>running</title>
<ellipse fill="none" stroke="black" cx="331.2" cy="-387" rx="47.39" ry="18"/>
<text text-anchor="middle" x="331.2" y="-383.3" font-family="Times,serif" font-size="14.00">running</text>
</g>
<!-- unknown&#45;&gt;running -->
<g id="edge1" class="edge">
<title>unknown&#45;&gt;running</title>
<path fill="none" stroke="black" d="M140.14,-387C179.47,-387 233.07,-387 273.49,-387"/>
<polygon fill="black" stroke="black" points="273.72,-390.5 283.72,-387 273.72,-383.5 273.72,-390.5"/>
<text text-anchor="middle" x="211.8" y="-393.8" font-family="Times,serif" font-size="14.00">eXecute *</text>
</g>
<!-- dead -->
<g id="node3" class="node">
<title>dead</title>
<ellipse fill="none" stroke="black" cx="555.2" cy="-387" rx="33.29" ry="18"/>
<text text-anchor="middle" x="555.2" y="-383.3" font-family="Times,serif" font-size="14.00">dead</text>
</g>
<!-- running&#45;&gt;dead -->
<g id="edge8" class="edge">
<title>running&#45;&gt;dead</title>
<path fill="none" stroke="black" d="M378.7,-387C418.03,-387 473.44,-387 511.64,-387"/>
<polygon fill="black" stroke="black" points="511.93,-390.5 521.93,-387 511.93,-383.5 511.93,-390.5"/>
<text text-anchor="middle" x="450.35" y="-393.8" font-family="Times,serif" font-size="14.00">* End</text>
</g>
<!-- cooling -->
<g id="node4" class="node">
<title>cooling</title>
<ellipse fill="none" stroke="black" cx="44.2" cy="-264" rx="44.39" ry="18"/>
<text text-anchor="middle" x="44.2" y="-260.3" font-family="Times,serif" font-size="14.00">cooling</text>
</g>
<!-- running&#45;&gt;cooling -->
<g id="edge2" class="edge">
<title>running&#45;&gt;cooling</title>
<path fill="none" stroke="black" d="M289.6,-378.08C251,-369.83 192.54,-355.01 145.2,-333 118.48,-320.58 90.92,-301.53 71.35,-286.75"/>
<polygon fill="black" stroke="black" points="73.28,-283.82 63.21,-280.5 69.01,-289.37 73.28,-283.82"/>
<text text-anchor="middle" x="161.2" y="-321.8" font-family="Times,serif" font-size="14.00">Cool</text>
</g>
<!-- paused -->
<g id="node5" class="node">
<title>paused</title>
<ellipse fill="none" stroke="black" cx="331.2" cy="-141" rx="44.39" ry="18"/>
<text text-anchor="middle" x="331.2" y="-137.3" font-family="Times,serif" font-size="14.00">paused</text>
</g>
<!-- running&#45;&gt;paused -->
<g id="edge4" class="edge">
<title>running&#45;&gt;paused</title>
<path fill="none" stroke="black" d="M321.28,-369.05C310.18,-349.04 292.9,-314.36 286.2,-282 277.68,-240.9 298.67,-194.84 314.77,-167.15"/>
<polygon fill="black" stroke="black" points="317.82,-168.87 319.99,-158.5 311.83,-165.25 317.82,-168.87"/>
<text text-anchor="middle" x="313.2" y="-260.3" font-family="Times,serif" font-size="14.00">* Pause</text>
</g>
<!-- cooling&#45;&gt;paused -->
<g id="edge3" class="edge">
<title>cooling&#45;&gt;paused</title>
<path fill="none" stroke="black" d="M58.64,-246.83C73.38,-231.3 97.68,-208.29 123.2,-195 172.77,-169.19 235.64,-155.43 279.22,-148.46"/>
<polygon fill="black" stroke="black" points="279.96,-151.89 289.32,-146.91 278.9,-144.97 279.96,-151.89"/>
<text text-anchor="middle" x="150.2" y="-198.8" font-family="Times,serif" font-size="14.00">* Pause</text>
</g>
<!-- paused&#45;&gt;running -->
<g id="edge5" class="edge">
<title>paused&#45;&gt;running</title>
<path fill="none" stroke="black" d="M340.01,-158.67C344.91,-168.85 350.54,-182.32 353.2,-195 365.77,-255.04 368.14,-273.04 355.2,-333 353.24,-342.08 349.58,-351.48 345.71,-359.8"/>
<polygon fill="black" stroke="black" points="342.47,-358.47 341.15,-368.98 348.73,-361.58 342.47,-358.47"/>
<text text-anchor="middle" x="398.7" y="-260.3" font-family="Times,serif" font-size="14.00">Resume *</text>
</g>
<!-- warming -->
<g id="node6" class="node">
<title>warming</title>
<ellipse fill="none" stroke="black" cx="470.2" cy="-18" rx="51.99" ry="18"/>
<text text-anchor="middle" x="470.2" y="-14.3" font-family="Times,serif" font-size="14.00">warming</text>
</g>
<!-- paused&#45;&gt;warming -->
<g id="edge6" class="edge">
<title>paused&#45;&gt;warming</title>
<path fill="none" stroke="black" d="M349.08,-124.43C373.24,-103.4 416.46,-65.78 444.21,-41.62"/>
<polygon fill="black" stroke="black" points="446.69,-44.1 451.94,-34.9 442.1,-38.82 446.69,-44.1"/>
<text text-anchor="middle" x="436.2" y="-75.8" font-family="Times,serif" font-size="14.00">Warm *</text>
</g>
<!-- warming&#45;&gt;running -->
<g id="edge7" class="edge">
<title>warming&#45;&gt;running</title>
<path fill="none" stroke="black" d="M475.21,-35.95C478.71,-49.65 482.54,-69.47 481.2,-87 474.51,-174.43 485.56,-201.33 451.2,-282 434.89,-320.27 396.12,-349.56 367.03,-367.15"/>
<polygon fill="black" stroke="black" points="365.21,-364.16 358.35,-372.24 368.74,-370.21 365.21,-364.16"/>
<text text-anchor="middle" x="504.2" y="-198.8" font-family="Times,serif" font-size="14.00">Resume</text>
</g>
</g>
</svg>
