<?xml version="1.0" encoding="UTF-8" standalone="no"?>
<!DOCTYPE svg PUBLIC "-//W3C//DTD SVG 1.1//EN"
 "http://www.w3.org/Graphics/SVG/1.1/DTD/svg11.dtd">
<!-- Generated by graphviz version 5.0.0 (0)
 -->
<!-- Pages: 1 -->
<svg width="490pt" height="98pt"
 viewBox="0.00 0.00 490.37 98.00" xmlns="http://www.w3.org/2000/svg" xmlns:xlink="http://www.w3.org/1999/xlink">
<g id="graph0" class="graph" transform="scale(1 1) rotate(0) translate(4 94)">
<polygon fill="white" stroke="transparent" points="-4,4 -4,-94 486.37,-94 486.37,4 -4,4"/>
<!-- Running -->
<g id="node1" class="node">
<title>Running</title>
<ellipse fill="none" stroke="black" cx="327.43" cy="-18" rx="50.09" ry="18"/>
<text text-anchor="middle" x="327.43" y="-14.3" font-family="Times,serif" font-size="14.00">Running</text>
</g>
<!-- Paused -->
<g id="node2" class="node">
<title>Paused</title>
<ellipse fill="none" stroke="black" cx="327.43" cy="-72" rx="44.39" ry="18"/>
<text text-anchor="middle" x="327.43" y="-68.3" font-family="Times,serif" font-size="14.00">Paused</text>
</g>
<!-- Running&#45;&gt;Paused -->
<g id="edge3" class="edge">
<title>Running&#45;&gt;Paused</title>
<path fill="none" stroke="black" d="M356.99,-32.55C364.84,-38.68 366.89,-44.81 363.15,-50.94"/>
<polygon fill="black" stroke="black" points="360.59,-48.55 356.08,-58.13 365.59,-53.45 360.59,-48.55"/>
</g>
<!-- Dead -->
<g id="node5" class="node">
<title>Dead</title>
<ellipse fill="none" stroke="black" cx="447.92" cy="-18" rx="34.39" ry="18"/>
<text text-anchor="middle" x="447.92" y="-14.3" font-family="Times,serif" font-size="14.00">Dead</text>
</g>
<!-- Running&#45;&gt;Dead -->
<g id="edge5" class="edge">
<title>Running&#45;&gt;Dead</title>
<path fill="none" stroke="black" d="M377.65,-18C386.05,-18 394.74,-18 402.99,-18"/>
<polygon fill="black" stroke="black" points="403.17,-21.5 413.17,-18 403.17,-14.5 403.17,-21.5"/>
</g>
<!-- Paused&#45;&gt;Running -->
<g id="edge4" class="edge">
<title>Paused&#45;&gt;Running</title>
<path fill="none" stroke="black" d="M298.77,-58.13C290.67,-52.14 288.11,-46.14 291.11,-40.15"/>
<polygon fill="black" stroke="black" points="293.83,-42.35 297.87,-32.55 288.6,-37.69 293.83,-42.35"/>
</g>
<!-- Unknown -->
<g id="node3" class="node">
<title>Unknown</title>
<ellipse fill="none" stroke="black" cx="54.6" cy="-18" rx="54.69" ry="18"/>
<text text-anchor="middle" x="54.6" y="-14.3" font-family="Times,serif" font-size="14.00">Unknown</text>
</g>
<!-- Created -->
<g id="node4" class="node">
<title>Created</title>
<ellipse fill="none" stroke="black" cx="193.29" cy="-18" rx="48.19" ry="18"/>
<text text-anchor="middle" x="193.29" y="-14.3" font-family="Times,serif" font-size="14.00">Created</text>
</g>
<!-- Unknown&#45;&gt;Created -->
<g id="edge1" class="edge">
<title>Unknown&#45;&gt;Created</title>
<path fill="none" stroke="black" d="M109.23,-18C117.63,-18 126.34,-18 134.82,-18"/>
<polygon fill="black" stroke="black" points="135.02,-21.5 145.02,-18 135.02,-14.5 135.02,-21.5"/>
</g>
<!-- Created&#45;&gt;Running -->
<g id="edge2" class="edge">
<title>Created&#45;&gt;Running</title>
<path fill="none" stroke="black" d="M241.62,-18C249.83,-18 258.47,-18 266.95,-18"/>
<polygon fill="black" stroke="black" points="267.2,-21.5 277.2,-18 267.2,-14.5 267.2,-21.5"/>
</g>
</g>
</svg>
